<svg xmlns="http://www.w3.org/2000/svg" width="53mm" height="26mm" viewBox="0 0 53 26">
  <title>Peptide Cortex RUO vial label — Retatrutide 10 mg (light)</title>
  <rect width="53" height="26" fill="#FAFAF8"/>

  <g stroke="#B0AAA0" stroke-width="0.12" opacity="0.7">
    <line x1="37.9" y1="1.6" x2="37.9" y2="19.4"/>
  </g>

  <!-- ── identity block ────────────────────────────────────────────── -->
  <circle cx="3.15" cy="2.15" r="0.62" fill="#1A8A9E"/>
  <text x="4.9" y="2.75" font-family="'Cormorant Garamond',Georgia,serif" font-size="2.050" font-weight="500" letter-spacing="0.328" fill="#1A1915" font-feature-settings="'lnum' 1,'tnum' 1" style="font-variant-numeric:lining-nums tabular-nums">PEPTIDE CORTEX</text>
  <text x="2.6" y="8" font-family="'Cormorant Garamond',Georgia,serif" font-size="5.400" font-weight="400" letter-spacing="0.162" fill="#1A8A9E" font-feature-settings="'lnum' 1,'tnum' 1" style="font-variant-numeric:lining-nums tabular-nums">Retatrutide</text>
  <text x="2.6" y="10.9" font-family="'Jost','Century Gothic',sans-serif" font-size="2.000" font-weight="400" letter-spacing="0.160" fill="#3A3730" font-feature-settings="'lnum' 1,'tnum' 1" style="font-variant-numeric:lining-nums tabular-nums">10 mg  ·  99.42% HPLC</text>

  <!-- ── batch data (thermal overprint zone) ───────────────────────────
       Separated by wide spaces rather than the "·" used elsewhere. At this
       size the mid-dot version overruns the 32.6 mm column; dropping three
       glyphs buys back the width without shrinking the type or growing the
       label a second time. -->
  <rect x="2.6" y="11.5" width="34.4" height="2.3" fill="none"
        stroke="#1A8A9E" stroke-width="0.1" stroke-dasharray="0.5 0.5" opacity="0.45"/>
  <text x="3" y="13.25" font-family="'Jost','Century Gothic',sans-serif" font-size="1.300" font-weight="400" letter-spacing="0.026" fill="#1A1915" font-feature-settings="'lnum' 1,'tnum' 1" style="font-variant-numeric:lining-nums tabular-nums">LOT JA-70680   MFG 2025-07   EXP 2027-07</text>

  <!-- ── reconstitution block ──────────────────────────────────────────
       The write-on panel is a light patch on purpose: a date inked onto the
       black stock would be invisible. It is the one place on the dark skin
       that inverts, which also flags it as the field to fill in. -->
  <text x="2.6" y="15.2" font-family="'Jost','Century Gothic',sans-serif" font-size="1.320" font-weight="400" letter-spacing="0.119" fill="#3A3730" font-feature-settings="'lnum' 1,'tnum' 1" style="font-variant-numeric:lining-nums tabular-nums">DATE OF RECONSTITUTION</text>
  <rect x="2.6" y="15.7" width="26" height="2.7" rx="0.3"
        fill="#FFFFFF" stroke="#B0AAA0" stroke-width="0.12"/>
  <text x="15.2" y="17.7" font-family="'Jost','Century Gothic',sans-serif" font-size="1.900" font-weight="400" letter-spacing="0.000" fill="#B0AAA0" font-feature-settings="'lnum' 1,'tnum' 1" style="font-variant-numeric:lining-nums tabular-nums">/</text>
  <text x="2.6" y="20" font-family="'Jost','Century Gothic',sans-serif" font-size="1.400" font-weight="400" letter-spacing="0.056" fill="#1A8A9E" font-feature-settings="'lnum' 1,'tnum' 1" style="font-variant-numeric:lining-nums tabular-nums">USE WITHIN 28 DAYS · 2–8 °C</text>

  <!-- ── COA code ──────────────────────────────────────────────────── -->
  <rect x="38.079" y="0.979" width="13.542" height="13.542" fill="#FAFAF8"/><rect x="38.600" y="1.500" width="0.529" height="0.529" fill="#1A1915"/><rect x="39.642" y="1.500" width="0.529" height="0.529" fill="#1A1915"/><rect x="40.683" y="1.500" width="0.529" height="0.529" fill="#1A1915"/><rect x="41.725" y="1.500" width="0.529" height="0.529" fill="#1A1915"/><rect x="42.767" y="1.500" width="0.529" height="0.529" fill="#1A1915"/><rect x="43.808" y="1.500" width="0.529" height="0.529" fill="#1A1915"/><rect x="44.850" y="1.500" width="0.529" height="0.529" fill="#1A1915"/><rect x="45.892" y="1.500" width="0.529" height="0.529" fill="#1A1915"/><rect x="46.933" y="1.500" width="0.529" height="0.529" fill="#1A1915"/><rect x="47.975" y="1.500" width="0.529" height="0.529" fill="#1A1915"/><rect x="49.017" y="1.500" width="0.529" height="0.529" fill="#1A1915"/><rect x="50.058" y="1.500" width="0.529" height="0.529" fill="#1A1915"/><rect x="38.600" y="2.021" width="0.529" height="0.529" fill="#1A1915"/><rect x="39.121" y="2.021" width="0.529" height="0.529" fill="#1A1915"/><rect x="40.163" y="2.021" width="0.529" height="0.529" fill="#1A1915"/><rect x="41.725" y="2.021" width="0.529" height="0.529" fill="#1A1915"/><rect x="42.246" y="2.021" width="0.529" height="0.529" fill="#1A1915"/><rect x="44.329" y="2.021" width="0.529" height="0.529" fill="#1A1915"/><rect x="44.850" y="2.021" width="0.529" height="0.529" fill="#1A1915"/><rect x="45.892" y="2.021" width="0.529" height="0.529" fill="#1A1915"/><rect x="46.413" y="2.021" width="0.529" height="0.529" fill="#1A1915"/><rect x="47.454" y="2.021" width="0.529" height="0.529" fill="#1A1915"/><rect x="47.975" y="2.021" width="0.529" height="0.529" fill="#1A1915"/><rect x="49.017" y="2.021" width="0.529" height="0.529" fill="#1A1915"/><rect x="49.538" y="2.021" width="0.529" height="0.529" fill="#1A1915"/><rect x="50.579" y="2.021" width="0.529" height="0.529" fill="#1A1915"/><rect x="38.600" y="2.542" width="0.529" height="0.529" fill="#1A1915"/><rect x="39.642" y="2.542" width="0.529" height="0.529" fill="#1A1915"/><rect x="41.725" y="2.542" width="0.529" height="0.529" fill="#1A1915"/><rect x="43.288" y="2.542" width="0.529" height="0.529" fill="#1A1915"/><rect x="43.808" y="2.542" width="0.529" height="0.529" fill="#1A1915"/><rect x="45.371" y="2.542" width="0.529" height="0.529" fill="#1A1915"/><rect x="45.892" y="2.542" width="0.529" height="0.529" fill="#1A1915"/><rect x="46.933" y="2.542" width="0.529" height="0.529" fill="#1A1915"/><rect x="47.975" y="2.542" width="0.529" height="0.529" fill="#1A1915"/><rect x="48.496" y="2.542" width="0.529" height="0.529" fill="#1A1915"/><rect x="49.017" y="2.542" width="0.529" height="0.529" fill="#1A1915"/><rect x="49.538" y="2.542" width="0.529" height="0.529" fill="#1A1915"/><rect x="38.600" y="3.063" width="0.529" height="0.529" fill="#1A1915"/><rect x="39.642" y="3.063" width="0.529" height="0.529" fill="#1A1915"/><rect x="41.204" y="3.063" width="0.529" height="0.529" fill="#1A1915"/><rect x="42.246" y="3.063" width="0.529" height="0.529" fill="#1A1915"/><rect x="42.767" y="3.063" width="0.529" height="0.529" fill="#1A1915"/><rect x="44.329" y="3.063" width="0.529" height="0.529" fill="#1A1915"/><rect x="44.850" y="3.063" width="0.529" height="0.529" fill="#1A1915"/><rect x="45.371" y="3.063" width="0.529" height="0.529" fill="#1A1915"/><rect x="46.413" y="3.063" width="0.529" height="0.529" fill="#1A1915"/><rect x="47.454" y="3.063" width="0.529" height="0.529" fill="#1A1915"/><rect x="49.017" y="3.063" width="0.529" height="0.529" fill="#1A1915"/><rect x="50.579" y="3.063" width="0.529" height="0.529" fill="#1A1915"/><rect x="38.600" y="3.583" width="0.529" height="0.529" fill="#1A1915"/><rect x="39.121" y="3.583" width="0.529" height="0.529" fill="#1A1915"/><rect x="39.642" y="3.583" width="0.529" height="0.529" fill="#1A1915"/><rect x="40.683" y="3.583" width="0.529" height="0.529" fill="#1A1915"/><rect x="41.204" y="3.583" width="0.529" height="0.529" fill="#1A1915"/><rect x="42.767" y="3.583" width="0.529" height="0.529" fill="#1A1915"/><rect x="44.850" y="3.583" width="0.529" height="0.529" fill="#1A1915"/><rect x="46.413" y="3.583" width="0.529" height="0.529" fill="#1A1915"/><rect x="47.454" y="3.583" width="0.529" height="0.529" fill="#1A1915"/><rect x="47.975" y="3.583" width="0.529" height="0.529" fill="#1A1915"/><rect x="48.496" y="3.583" width="0.529" height="0.529" fill="#1A1915"/><rect x="38.600" y="4.104" width="0.529" height="0.529" fill="#1A1915"/><rect x="39.121" y="4.104" width="0.529" height="0.529" fill="#1A1915"/><rect x="40.683" y="4.104" width="0.529" height="0.529" fill="#1A1915"/><rect x="41.204" y="4.104" width="0.529" height="0.529" fill="#1A1915"/><rect x="43.288" y="4.104" width="0.529" height="0.529" fill="#1A1915"/><rect x="43.808" y="4.104" width="0.529" height="0.529" fill="#1A1915"/><rect x="44.329" y="4.104" width="0.529" height="0.529" fill="#1A1915"/><rect x="45.371" y="4.104" width="0.529" height="0.529" fill="#1A1915"/><rect x="46.413" y="4.104" width="0.529" height="0.529" fill="#1A1915"/><rect x="47.454" y="4.104" width="0.529" height="0.529" fill="#1A1915"/><rect x="47.975" y="4.104" width="0.529" height="0.529" fill="#1A1915"/><rect x="48.496" y="4.104" width="0.529" height="0.529" fill="#1A1915"/><rect x="49.017" y="4.104" width="0.529" height="0.529" fill="#1A1915"/><rect x="49.538" y="4.104" width="0.529" height="0.529" fill="#1A1915"/><rect x="50.058" y="4.104" width="0.529" height="0.529" fill="#1A1915"/><rect x="50.579" y="4.104" width="0.529" height="0.529" fill="#1A1915"/><rect x="38.600" y="4.625" width="0.529" height="0.529" fill="#1A1915"/><rect x="39.121" y="4.625" width="0.529" height="0.529" fill="#1A1915"/><rect x="39.642" y="4.625" width="0.529" height="0.529" fill="#1A1915"/><rect x="40.683" y="4.625" width="0.529" height="0.529" fill="#1A1915"/><rect x="41.204" y="4.625" width="0.529" height="0.529" fill="#1A1915"/><rect x="41.725" y="4.625" width="0.529" height="0.529" fill="#1A1915"/><rect x="42.767" y="4.625" width="0.529" height="0.529" fill="#1A1915"/><rect x="43.288" y="4.625" width="0.529" height="0.529" fill="#1A1915"/><rect x="46.413" y="4.625" width="0.529" height="0.529" fill="#1A1915"/><rect x="46.933" y="4.625" width="0.529" height="0.529" fill="#1A1915"/><rect x="47.975" y="4.625" width="0.529" height="0.529" fill="#1A1915"/><rect x="48.496" y="4.625" width="0.529" height="0.529" fill="#1A1915"/><rect x="49.538" y="4.625" width="0.529" height="0.529" fill="#1A1915"/><rect x="38.600" y="5.146" width="0.529" height="0.529" fill="#1A1915"/><rect x="40.163" y="5.146" width="0.529" height="0.529" fill="#1A1915"/><rect x="41.204" y="5.146" width="0.529" height="0.529" fill="#1A1915"/><rect x="41.725" y="5.146" width="0.529" height="0.529" fill="#1A1915"/><rect x="42.246" y="5.146" width="0.529" height="0.529" fill="#1A1915"/><rect x="43.808" y="5.146" width="0.529" height="0.529" fill="#1A1915"/><rect x="45.371" y="5.146" width="0.529" height="0.529" fill="#1A1915"/><rect x="45.892" y="5.146" width="0.529" height="0.529" fill="#1A1915"/><rect x="46.413" y="5.146" width="0.529" height="0.529" fill="#1A1915"/><rect x="49.017" y="5.146" width="0.529" height="0.529" fill="#1A1915"/><rect x="49.538" y="5.146" width="0.529" height="0.529" fill="#1A1915"/><rect x="50.058" y="5.146" width="0.529" height="0.529" fill="#1A1915"/><rect x="50.579" y="5.146" width="0.529" height="0.529" fill="#1A1915"/><rect x="38.600" y="5.667" width="0.529" height="0.529" fill="#1A1915"/><rect x="39.121" y="5.667" width="0.529" height="0.529" fill="#1A1915"/><rect x="40.163" y="5.667" width="0.529" height="0.529" fill="#1A1915"/><rect x="41.725" y="5.667" width="0.529" height="0.529" fill="#1A1915"/><rect x="42.246" y="5.667" width="0.529" height="0.529" fill="#1A1915"/><rect x="45.892" y="5.667" width="0.529" height="0.529" fill="#1A1915"/><rect x="47.975" y="5.667" width="0.529" height="0.529" fill="#1A1915"/><rect x="49.017" y="5.667" width="0.529" height="0.529" fill="#1A1915"/><rect x="49.538" y="5.667" width="0.529" height="0.529" fill="#1A1915"/><rect x="38.600" y="6.188" width="0.529" height="0.529" fill="#1A1915"/><rect x="39.121" y="6.188" width="0.529" height="0.529" fill="#1A1915"/><rect x="39.642" y="6.188" width="0.529" height="0.529" fill="#1A1915"/><rect x="40.683" y="6.188" width="0.529" height="0.529" fill="#1A1915"/><rect x="43.288" y="6.188" width="0.529" height="0.529" fill="#1A1915"/><rect x="43.808" y="6.188" width="0.529" height="0.529" fill="#1A1915"/><rect x="44.329" y="6.188" width="0.529" height="0.529" fill="#1A1915"/><rect x="45.371" y="6.188" width="0.529" height="0.529" fill="#1A1915"/><rect x="45.892" y="6.188" width="0.529" height="0.529" fill="#1A1915"/><rect x="46.413" y="6.188" width="0.529" height="0.529" fill="#1A1915"/><rect x="47.454" y="6.188" width="0.529" height="0.529" fill="#1A1915"/><rect x="47.975" y="6.188" width="0.529" height="0.529" fill="#1A1915"/><rect x="49.017" y="6.188" width="0.529" height="0.529" fill="#1A1915"/><rect x="49.538" y="6.188" width="0.529" height="0.529" fill="#1A1915"/><rect x="50.579" y="6.188" width="0.529" height="0.529" fill="#1A1915"/><rect x="38.600" y="6.708" width="0.529" height="0.529" fill="#1A1915"/><rect x="39.642" y="6.708" width="0.529" height="0.529" fill="#1A1915"/><rect x="40.163" y="6.708" width="0.529" height="0.529" fill="#1A1915"/><rect x="41.725" y="6.708" width="0.529" height="0.529" fill="#1A1915"/><rect x="42.246" y="6.708" width="0.529" height="0.529" fill="#1A1915"/><rect x="44.329" y="6.708" width="0.529" height="0.529" fill="#1A1915"/><rect x="45.892" y="6.708" width="0.529" height="0.529" fill="#1A1915"/><rect x="46.933" y="6.708" width="0.529" height="0.529" fill="#1A1915"/><rect x="47.975" y="6.708" width="0.529" height="0.529" fill="#1A1915"/><rect x="49.538" y="6.708" width="0.529" height="0.529" fill="#1A1915"/><rect x="38.600" y="7.229" width="0.529" height="0.529" fill="#1A1915"/><rect x="39.121" y="7.229" width="0.529" height="0.529" fill="#1A1915"/><rect x="40.163" y="7.229" width="0.529" height="0.529" fill="#1A1915"/><rect x="40.683" y="7.229" width="0.529" height="0.529" fill="#1A1915"/><rect x="41.204" y="7.229" width="0.529" height="0.529" fill="#1A1915"/><rect x="43.808" y="7.229" width="0.529" height="0.529" fill="#1A1915"/><rect x="44.850" y="7.229" width="0.529" height="0.529" fill="#1A1915"/><rect x="46.413" y="7.229" width="0.529" height="0.529" fill="#1A1915"/><rect x="50.579" y="7.229" width="0.529" height="0.529" fill="#1A1915"/><rect x="38.600" y="7.750" width="0.529" height="0.529" fill="#1A1915"/><rect x="41.725" y="7.750" width="0.529" height="0.529" fill="#1A1915"/><rect x="43.808" y="7.750" width="0.529" height="0.529" fill="#1A1915"/><rect x="44.329" y="7.750" width="0.529" height="0.529" fill="#1A1915"/><rect x="44.850" y="7.750" width="0.529" height="0.529" fill="#1A1915"/><rect x="45.371" y="7.750" width="0.529" height="0.529" fill="#1A1915"/><rect x="46.413" y="7.750" width="0.529" height="0.529" fill="#1A1915"/><rect x="47.454" y="7.750" width="0.529" height="0.529" fill="#1A1915"/><rect x="47.975" y="7.750" width="0.529" height="0.529" fill="#1A1915"/><rect x="50.058" y="7.750" width="0.529" height="0.529" fill="#1A1915"/><rect x="38.600" y="8.271" width="0.529" height="0.529" fill="#1A1915"/><rect x="39.121" y="8.271" width="0.529" height="0.529" fill="#1A1915"/><rect x="39.642" y="8.271" width="0.529" height="0.529" fill="#1A1915"/><rect x="40.683" y="8.271" width="0.529" height="0.529" fill="#1A1915"/><rect x="41.725" y="8.271" width="0.529" height="0.529" fill="#1A1915"/><rect x="42.246" y="8.271" width="0.529" height="0.529" fill="#1A1915"/><rect x="42.767" y="8.271" width="0.529" height="0.529" fill="#1A1915"/><rect x="43.288" y="8.271" width="0.529" height="0.529" fill="#1A1915"/><rect x="43.808" y="8.271" width="0.529" height="0.529" fill="#1A1915"/><rect x="44.329" y="8.271" width="0.529" height="0.529" fill="#1A1915"/><rect x="44.850" y="8.271" width="0.529" height="0.529" fill="#1A1915"/><rect x="45.371" y="8.271" width="0.529" height="0.529" fill="#1A1915"/><rect x="46.413" y="8.271" width="0.529" height="0.529" fill="#1A1915"/><rect x="47.454" y="8.271" width="0.529" height="0.529" fill="#1A1915"/><rect x="48.496" y="8.271" width="0.529" height="0.529" fill="#1A1915"/><rect x="49.017" y="8.271" width="0.529" height="0.529" fill="#1A1915"/><rect x="50.058" y="8.271" width="0.529" height="0.529" fill="#1A1915"/><rect x="50.579" y="8.271" width="0.529" height="0.529" fill="#1A1915"/><rect x="38.600" y="8.792" width="0.529" height="0.529" fill="#1A1915"/><rect x="39.121" y="8.792" width="0.529" height="0.529" fill="#1A1915"/><rect x="39.642" y="8.792" width="0.529" height="0.529" fill="#1A1915"/><rect x="40.163" y="8.792" width="0.529" height="0.529" fill="#1A1915"/><rect x="41.725" y="8.792" width="0.529" height="0.529" fill="#1A1915"/><rect x="42.246" y="8.792" width="0.529" height="0.529" fill="#1A1915"/><rect x="43.808" y="8.792" width="0.529" height="0.529" fill="#1A1915"/><rect x="45.892" y="8.792" width="0.529" height="0.529" fill="#1A1915"/><rect x="46.413" y="8.792" width="0.529" height="0.529" fill="#1A1915"/><rect x="46.933" y="8.792" width="0.529" height="0.529" fill="#1A1915"/><rect x="47.454" y="8.792" width="0.529" height="0.529" fill="#1A1915"/><rect x="49.017" y="8.792" width="0.529" height="0.529" fill="#1A1915"/><rect x="50.058" y="8.792" width="0.529" height="0.529" fill="#1A1915"/><rect x="38.600" y="9.313" width="0.529" height="0.529" fill="#1A1915"/><rect x="39.121" y="9.313" width="0.529" height="0.529" fill="#1A1915"/><rect x="40.163" y="9.313" width="0.529" height="0.529" fill="#1A1915"/><rect x="40.683" y="9.313" width="0.529" height="0.529" fill="#1A1915"/><rect x="41.204" y="9.313" width="0.529" height="0.529" fill="#1A1915"/><rect x="41.725" y="9.313" width="0.529" height="0.529" fill="#1A1915"/><rect x="42.246" y="9.313" width="0.529" height="0.529" fill="#1A1915"/><rect x="44.329" y="9.313" width="0.529" height="0.529" fill="#1A1915"/><rect x="44.850" y="9.313" width="0.529" height="0.529" fill="#1A1915"/><rect x="45.892" y="9.313" width="0.529" height="0.529" fill="#1A1915"/><rect x="46.413" y="9.313" width="0.529" height="0.529" fill="#1A1915"/><rect x="47.975" y="9.313" width="0.529" height="0.529" fill="#1A1915"/><rect x="48.496" y="9.313" width="0.529" height="0.529" fill="#1A1915"/><rect x="50.058" y="9.313" width="0.529" height="0.529" fill="#1A1915"/><rect x="50.579" y="9.313" width="0.529" height="0.529" fill="#1A1915"/><rect x="38.600" y="9.833" width="0.529" height="0.529" fill="#1A1915"/><rect x="39.121" y="9.833" width="0.529" height="0.529" fill="#1A1915"/><rect x="39.642" y="9.833" width="0.529" height="0.529" fill="#1A1915"/><rect x="40.163" y="9.833" width="0.529" height="0.529" fill="#1A1915"/><rect x="41.725" y="9.833" width="0.529" height="0.529" fill="#1A1915"/><rect x="42.767" y="9.833" width="0.529" height="0.529" fill="#1A1915"/><rect x="44.329" y="9.833" width="0.529" height="0.529" fill="#1A1915"/><rect x="45.892" y="9.833" width="0.529" height="0.529" fill="#1A1915"/><rect x="46.413" y="9.833" width="0.529" height="0.529" fill="#1A1915"/><rect x="47.454" y="9.833" width="0.529" height="0.529" fill="#1A1915"/><rect x="38.600" y="10.354" width="0.529" height="0.529" fill="#1A1915"/><rect x="39.642" y="10.354" width="0.529" height="0.529" fill="#1A1915"/><rect x="40.163" y="10.354" width="0.529" height="0.529" fill="#1A1915"/><rect x="40.683" y="10.354" width="0.529" height="0.529" fill="#1A1915"/><rect x="42.246" y="10.354" width="0.529" height="0.529" fill="#1A1915"/><rect x="42.767" y="10.354" width="0.529" height="0.529" fill="#1A1915"/><rect x="43.808" y="10.354" width="0.529" height="0.529" fill="#1A1915"/><rect x="44.850" y="10.354" width="0.529" height="0.529" fill="#1A1915"/><rect x="45.371" y="10.354" width="0.529" height="0.529" fill="#1A1915"/><rect x="45.892" y="10.354" width="0.529" height="0.529" fill="#1A1915"/><rect x="46.413" y="10.354" width="0.529" height="0.529" fill="#1A1915"/><rect x="46.933" y="10.354" width="0.529" height="0.529" fill="#1A1915"/><rect x="47.454" y="10.354" width="0.529" height="0.529" fill="#1A1915"/><rect x="47.975" y="10.354" width="0.529" height="0.529" fill="#1A1915"/><rect x="50.579" y="10.354" width="0.529" height="0.529" fill="#1A1915"/><rect x="38.600" y="10.875" width="0.529" height="0.529" fill="#1A1915"/><rect x="39.121" y="10.875" width="0.529" height="0.529" fill="#1A1915"/><rect x="40.683" y="10.875" width="0.529" height="0.529" fill="#1A1915"/><rect x="41.725" y="10.875" width="0.529" height="0.529" fill="#1A1915"/><rect x="42.767" y="10.875" width="0.529" height="0.529" fill="#1A1915"/><rect x="43.808" y="10.875" width="0.529" height="0.529" fill="#1A1915"/><rect x="44.329" y="10.875" width="0.529" height="0.529" fill="#1A1915"/><rect x="44.850" y="10.875" width="0.529" height="0.529" fill="#1A1915"/><rect x="45.371" y="10.875" width="0.529" height="0.529" fill="#1A1915"/><rect x="47.454" y="10.875" width="0.529" height="0.529" fill="#1A1915"/><rect x="48.496" y="10.875" width="0.529" height="0.529" fill="#1A1915"/><rect x="49.017" y="10.875" width="0.529" height="0.529" fill="#1A1915"/><rect x="49.538" y="10.875" width="0.529" height="0.529" fill="#1A1915"/><rect x="38.600" y="11.396" width="0.529" height="0.529" fill="#1A1915"/><rect x="41.204" y="11.396" width="0.529" height="0.529" fill="#1A1915"/><rect x="43.808" y="11.396" width="0.529" height="0.529" fill="#1A1915"/><rect x="45.371" y="11.396" width="0.529" height="0.529" fill="#1A1915"/><rect x="45.892" y="11.396" width="0.529" height="0.529" fill="#1A1915"/><rect x="46.413" y="11.396" width="0.529" height="0.529" fill="#1A1915"/><rect x="46.933" y="11.396" width="0.529" height="0.529" fill="#1A1915"/><rect x="47.454" y="11.396" width="0.529" height="0.529" fill="#1A1915"/><rect x="47.975" y="11.396" width="0.529" height="0.529" fill="#1A1915"/><rect x="49.017" y="11.396" width="0.529" height="0.529" fill="#1A1915"/><rect x="49.538" y="11.396" width="0.529" height="0.529" fill="#1A1915"/><rect x="50.058" y="11.396" width="0.529" height="0.529" fill="#1A1915"/><rect x="50.579" y="11.396" width="0.529" height="0.529" fill="#1A1915"/><rect x="38.600" y="11.917" width="0.529" height="0.529" fill="#1A1915"/><rect x="39.121" y="11.917" width="0.529" height="0.529" fill="#1A1915"/><rect x="40.683" y="11.917" width="0.529" height="0.529" fill="#1A1915"/><rect x="41.725" y="11.917" width="0.529" height="0.529" fill="#1A1915"/><rect x="42.246" y="11.917" width="0.529" height="0.529" fill="#1A1915"/><rect x="43.288" y="11.917" width="0.529" height="0.529" fill="#1A1915"/><rect x="43.808" y="11.917" width="0.529" height="0.529" fill="#1A1915"/><rect x="44.329" y="11.917" width="0.529" height="0.529" fill="#1A1915"/><rect x="44.850" y="11.917" width="0.529" height="0.529" fill="#1A1915"/><rect x="45.892" y="11.917" width="0.529" height="0.529" fill="#1A1915"/><rect x="46.413" y="11.917" width="0.529" height="0.529" fill="#1A1915"/><rect x="38.600" y="12.438" width="0.529" height="0.529" fill="#1A1915"/><rect x="39.642" y="12.438" width="0.529" height="0.529" fill="#1A1915"/><rect x="40.163" y="12.438" width="0.529" height="0.529" fill="#1A1915"/><rect x="44.850" y="12.438" width="0.529" height="0.529" fill="#1A1915"/><rect x="45.371" y="12.438" width="0.529" height="0.529" fill="#1A1915"/><rect x="45.892" y="12.438" width="0.529" height="0.529" fill="#1A1915"/><rect x="46.413" y="12.438" width="0.529" height="0.529" fill="#1A1915"/><rect x="46.933" y="12.438" width="0.529" height="0.529" fill="#1A1915"/><rect x="47.975" y="12.438" width="0.529" height="0.529" fill="#1A1915"/><rect x="49.017" y="12.438" width="0.529" height="0.529" fill="#1A1915"/><rect x="49.538" y="12.438" width="0.529" height="0.529" fill="#1A1915"/><rect x="50.579" y="12.438" width="0.529" height="0.529" fill="#1A1915"/><rect x="38.600" y="12.958" width="0.529" height="0.529" fill="#1A1915"/><rect x="40.163" y="12.958" width="0.529" height="0.529" fill="#1A1915"/><rect x="42.246" y="12.958" width="0.529" height="0.529" fill="#1A1915"/><rect x="42.767" y="12.958" width="0.529" height="0.529" fill="#1A1915"/><rect x="43.808" y="12.958" width="0.529" height="0.529" fill="#1A1915"/><rect x="44.329" y="12.958" width="0.529" height="0.529" fill="#1A1915"/><rect x="44.850" y="12.958" width="0.529" height="0.529" fill="#1A1915"/><rect x="45.371" y="12.958" width="0.529" height="0.529" fill="#1A1915"/><rect x="45.892" y="12.958" width="0.529" height="0.529" fill="#1A1915"/><rect x="46.413" y="12.958" width="0.529" height="0.529" fill="#1A1915"/><rect x="47.454" y="12.958" width="0.529" height="0.529" fill="#1A1915"/><rect x="48.496" y="12.958" width="0.529" height="0.529" fill="#1A1915"/><rect x="50.058" y="12.958" width="0.529" height="0.529" fill="#1A1915"/><rect x="38.600" y="13.479" width="0.529" height="0.529" fill="#1A1915"/><rect x="39.121" y="13.479" width="0.529" height="0.529" fill="#1A1915"/><rect x="39.642" y="13.479" width="0.529" height="0.529" fill="#1A1915"/><rect x="40.163" y="13.479" width="0.529" height="0.529" fill="#1A1915"/><rect x="40.683" y="13.479" width="0.529" height="0.529" fill="#1A1915"/><rect x="41.204" y="13.479" width="0.529" height="0.529" fill="#1A1915"/><rect x="41.725" y="13.479" width="0.529" height="0.529" fill="#1A1915"/><rect x="42.246" y="13.479" width="0.529" height="0.529" fill="#1A1915"/><rect x="42.767" y="13.479" width="0.529" height="0.529" fill="#1A1915"/><rect x="43.288" y="13.479" width="0.529" height="0.529" fill="#1A1915"/><rect x="43.808" y="13.479" width="0.529" height="0.529" fill="#1A1915"/><rect x="44.329" y="13.479" width="0.529" height="0.529" fill="#1A1915"/><rect x="44.850" y="13.479" width="0.529" height="0.529" fill="#1A1915"/><rect x="45.371" y="13.479" width="0.529" height="0.529" fill="#1A1915"/><rect x="45.892" y="13.479" width="0.529" height="0.529" fill="#1A1915"/><rect x="46.413" y="13.479" width="0.529" height="0.529" fill="#1A1915"/><rect x="46.933" y="13.479" width="0.529" height="0.529" fill="#1A1915"/><rect x="47.454" y="13.479" width="0.529" height="0.529" fill="#1A1915"/><rect x="47.975" y="13.479" width="0.529" height="0.529" fill="#1A1915"/><rect x="48.496" y="13.479" width="0.529" height="0.529" fill="#1A1915"/><rect x="49.017" y="13.479" width="0.529" height="0.529" fill="#1A1915"/><rect x="49.538" y="13.479" width="0.529" height="0.529" fill="#1A1915"/><rect x="50.058" y="13.479" width="0.529" height="0.529" fill="#1A1915"/><rect x="50.579" y="13.479" width="0.529" height="0.529" fill="#1A1915"/>
  <text x="38.2" y="16.5" font-family="'Jost','Century Gothic',sans-serif" font-size="1.300" font-weight="400" letter-spacing="0.026" fill="#3A3730" font-feature-settings="'lnum' 1,'tnum' 1" style="font-variant-numeric:lining-nums tabular-nums">SCAN FOR COA</text>
  <text x="38.2" y="18.8" font-family="'Jost','Century Gothic',sans-serif" font-size="1.300" font-weight="400" letter-spacing="0.026" fill="#3A3730" font-feature-settings="'lnum' 1,'tnum' 1" style="font-variant-numeric:lining-nums tabular-nums">STORE AT −20 °C</text>

  <!-- ── warning band ──────────────────────────────────────────────────
       Runs the full width so it stays legible whatever rotation the vial is
       picked up at, and sits outside every variable zone so it can never be
       overprinted away. -->
  <rect x="0" y="20.6" width="53" height="5.399999999999999" fill="#1A1915"/>
  <text x="3" y="24.3" font-family="'Jost','Century Gothic',sans-serif" font-size="2.000" font-weight="500" letter-spacing="0.000" fill="#FAFAF8" font-feature-settings="'lnum' 1,'tnum' 1" style="font-variant-numeric:lining-nums tabular-nums" textLength="47" lengthAdjust="spacing">RESEARCH USE ONLY · NOT FOR HUMAN CONSUMPTION</text>
</svg>
